<svg width="685.26" height="184.31" version="1.1" viewBox="0 0 342.63 92.153" xmlns="http://www.w3.org/2000/svg">
 <g transform="matrix(.45647 0 0 .45647 13.435 5.4353)">
  <g transform="matrix(1.3333 0 0 -1.3333 -234.36 485.82)" fill="#333" fill-opacity=".81176" stroke-width="12.962">
   <path d="m339.49 254.27q-1.9702 0-3.5257 1.4517t-1.5554 3.8368v51.122q0 7.4661 2.9035 12.962 3.0072 5.4959 8.2957 8.5031 5.2885 3.1109 12.236 3.1109 2.2813 0 3.7331-1.348 1.5554-1.348 1.5554-3.422 0-1.9702-1.5554-3.422-1.4518-1.348-3.7331-1.348-3.8368 0-6.7402-1.7628t-4.5626-4.8737q-1.5554-3.1109-1.5554-7.3624v-52.159q0-2.385-1.4518-3.8368-1.4517-1.4517-4.0441-1.4517zm-9.54 45.73q-2.1776 0-3.5257 1.2444-1.348 1.2444-1.348 3.1109 0 2.0739 1.348 3.3183t3.5257 1.2444h25.613q2.1776 0 3.5257-1.2444 1.348-1.2444 1.348-3.3183 0-1.8665-1.348-3.1109t-3.5257-1.2444z"/>
   <path d="m390.64 253.86q-8.3994 0-14.829 3.6294-6.4292 3.7331-10.162 10.162-3.6294 6.5328-3.6294 14.932 0 8.5031 3.6294 14.932 3.7331 6.5328 10.162 10.162 6.4292 3.733 14.829 3.733 8.2957 0 14.725-3.733 6.4292-3.6294 10.059-10.162 3.7331-6.4292 3.7331-14.932 0-8.3994-3.6294-14.932-3.6294-6.4292-10.059-10.162-6.4292-3.6294-14.829-3.6294zm0 9.3326q5.3922 0 9.54 2.4887t6.4292 6.8439q2.385 4.3552 2.385 10.059t-2.385 10.059q-2.2813 4.4589-6.4292 6.9476-4.1478 2.4887-9.54 2.4887t-9.54-2.4887-6.5328-6.9476q-2.385-4.3552-2.385-10.059t2.385-10.059 6.5328-6.8439 9.54-2.4887z"/>
   <path d="m434.08 289.74q0 6.2218 3.0072 11.095 3.1109 4.9774 8.2957 7.8809t11.407 2.9035 9.229-2.0739q3.1109-1.9702 2.385-4.77-0.31109-1.4518-1.2444-2.2813-0.82956-0.72588-1.9702-0.93327t-2.4887 0.1037q-6.6366 1.348-11.925 0.20739-5.2885-1.1407-8.3994-4.2515-3.0072-3.1109-3.0072-7.8809zm0.1037-35.464q-2.4887 0-3.8368 1.2444-1.348 1.348-1.348 3.9404v46.352q0 2.4887 1.348 3.8368 1.348 1.348 3.8368 1.348 2.5924 0 3.8368-1.348 1.348-1.2444 1.348-3.8368v-46.352q0-2.4887-1.348-3.8368-1.2444-1.348-3.8368-1.348z"/>
   <path d="m500.53 253.86q-8.6068 0-15.347 3.6294-6.6365 3.7331-10.473 10.162-3.733 6.5328-3.733 14.932 0 8.5031 3.5257 14.932 3.6294 6.5328 9.9548 10.162 6.3254 3.733 14.517 3.733 8.0883 0 13.895-3.6294 5.807-3.5257 8.8142-9.8511 3.1109-6.2218 3.1109-14.414 0-1.9702-1.348-3.3183-1.348-1.2444-3.422-1.2444h-41.789v8.2957h41.478l-4.2515-2.9035q-0.10369 5.1848-2.0739 9.2289-1.9702 4.1478-5.5996 6.5328t-8.8142 2.385q-5.9107 0-10.162-2.5924-4.1478-2.5924-6.3255-7.155-2.1776-4.4589-2.1776-10.162t2.5924-10.162 7.155-7.0513 10.473-2.5924q3.2146 0 6.5328 1.1406 3.422 1.2444 5.4959 2.7998 1.5554 1.1406 3.3183 1.1406 1.8665 0.1037 3.2146-1.037 1.7628-1.5554 1.8665-3.422 0.1037-1.8665-1.6591-3.2146-3.5257-2.7998-8.8142-4.5626-5.1848-1.7628-9.9548-1.7628z"/>
   <path d="m611.24 254.17q-2.2813 0-3.8368 1.4517-1.4517 1.5554-1.4517 3.8368v29.657q0 6.5328-3.2146 9.6437-3.2146 3.2146-8.3994 3.2146-5.3922 0-8.9178-3.7331-3.422-3.7331-3.422-9.54h-8.6068q0 6.7402 2.9035 11.821 2.9035 5.1848 8.0883 8.0883 5.2885 2.9035 12.029 2.9035 5.9107 0 10.473-2.5924t7.0513-7.6735q2.5924-4.9774 2.5924-12.132v-29.657q0-2.2813-1.4518-3.8368-1.4517-1.4517-3.8368-1.4517zm-69.165 0q-2.2813 0-3.8368 1.4517-1.4518 1.5554-1.4518 3.8368v46.145q0 2.385 1.4518 3.8368 1.5554 1.4517 3.8368 1.4517 2.385 0 3.8368-1.4517 1.4518-1.4518 1.4518-3.8368v-46.145q0-2.2813-1.4518-3.8368-1.4517-1.4517-3.8368-1.4517zm34.634 0q-2.2813 0-3.8368 1.4517-1.4517 1.5554-1.4517 3.8368v29.657q0 6.5328-3.2146 9.6437-3.2146 3.2146-8.3994 3.2146-5.3922 0-8.9179-3.7331t-3.5257-9.54h-6.5328q0 6.7402 2.6961 11.821 2.6961 5.1848 7.4661 8.0883t10.888 2.9035q5.9107 0 10.473-2.5924 4.5626-2.5924 7.0513-7.6735 2.5924-4.9774 2.5924-12.132v-29.657q0-2.2813-1.4517-3.8368-1.4518-1.4517-3.8368-1.4517z"/>
   <path d="m651.64 253.86q-7.5698 0-13.584 3.7331-6.0144 3.8368-9.54 10.266-3.422 6.5328-3.422 14.725 0 8.192 3.7331 14.725 3.8368 6.5328 10.266 10.266 6.5328 3.8368 14.621 3.8368t14.517-3.8368q6.4292-3.7331 10.162-10.266 3.8368-6.5328 3.8368-14.725h-4.0442q0-8.192-3.5257-14.725-3.422-6.4292-9.4363-10.266-6.0144-3.7331-13.584-3.7331zm2.0739 9.3326q5.2885 0 9.4363 2.4887 4.1478 2.5924 6.5328 6.9476 2.385 4.4589 2.385 9.9548 0 5.5996-2.385 9.9548-2.385 4.4589-6.5328 6.9476-4.1478 2.5924-9.4363 2.5924-5.1848 0-9.4363-2.5924-4.1478-2.4887-6.6365-6.9476-2.385-4.3552-2.385-9.9548 0-5.4959 2.385-9.9548 2.4887-4.3552 6.6365-6.9476 4.2515-2.4887 9.4363-2.4887zm23.228-9.0216q-2.2813 0-3.8368 1.4517-1.4517 1.5554-1.4517 3.8368v15.865l1.9702 10.992 8.6068-3.7331v-23.124q0-2.2813-1.5554-3.8368-1.4518-1.4517-3.7331-1.4517z"/>
  </g>
  <path d="m85.314 173.28c-14.317 0-27.164-3.5304-38.539-10.591-11.376-7.2569-20.397-16.965-27.066-29.125-6.4723-12.356-9.7085-26.281-9.7085-41.776 0-15.494 3.5304-29.42 10.591-41.776 7.2569-12.356 16.965-22.065 29.125-29.125 12.356-7.2569 26.183-10.885 41.481-10.885s29.027 3.6284 41.186 10.885c12.16 7.0607 21.77 16.769 28.83 29.125 7.2569 12.356 10.885 26.281 10.885 41.776h-11.474c-6.9349 47.115-29.458 81.059-75.313 81.493zm5.8838-26.477c10.003 0 18.926-2.3536 26.772-7.0607 7.8451-4.9032 14.023-11.474 18.534-19.711 4.511-8.4335 6.7664-17.848 6.7664-28.243 0-10.591-2.2555-20.005-6.7664-28.243-4.511-8.4335-10.689-15.004-18.534-19.711-7.8451-4.9032-16.769-7.3549-26.772-7.3549-9.8065 0-18.73 2.4516-26.772 7.3549-7.8451 4.7071-14.121 11.277-18.828 19.711-4.511 8.2374-6.7664 17.652-6.7664 28.243 0 10.395 2.2555 19.809 6.7664 28.243 4.7071 8.2374 10.983 14.808 18.828 19.711 8.0412 4.7071 16.965 7.0607 26.772 7.0607zm65.9 25.595c-4.3148 0-68.842 3.628-71.784 0.8823-22.228 4.0868 56.78-42.515 56.78-60.897l5.5896-31.185 24.418 10.591v65.605c0 4.3148-1.4709 7.9433-4.4128 10.885-2.7459 2.7457-6.2763 4.1186-10.591 4.1186z" fill="#2fc186" stroke-width="36.774"/>
 </g>
</svg>
